{"title":"The Little Prince 2015 720p HC HDRIP x264 AC3 TiTAN","uid":12797375,"size":2024125193,"categoryP":"video","categoryS":"hd___movies","magnet":"?xt=urn:btih:4f690cf5189415273acf2f24f94cf1d94f2c8e28&amp;dn=The+Little+Prince+2015+720p+HC+HDRIP+x264+AC3+TiTAN&amp;tr=udp%3A%2F%2Ftracker.leechers-paradise.org%3A6969&amp;tr=udp%3A%2F%2Fzer0day.ch%3A1337&amp;tr=udp%3A%2F%2Fopen.demonii.com%3A1337&amp;tr=udp%3A%2F%2Ftracker.coppersurfer.tk%3A6969&amp;tr=udp%3A%2F%2Fexodus.desync.com%3A6969","seeders":1,"leechers":0,"uploader":"makintos13","files":2,"time":1447992498,"description":"Screens:\r\n \nhttp://imgmak.com/XM \nhttp://imgmak.com/XO \nhttp://imgmak.com/XP \nhttp://imgmak.com/XY \nhttp://imgmak.com/X0 \nhttp://imgmak.com/XA \nhttp://imgmak.com/XD \nhttp://imgmak.com/Xf\r\n \nhttp://www.imdb.com/title/tt1754656/\r\n\r\nSource: 1080p \r\n\r\nCute little movie, with an all star cast.. It's all in English other than HC Chinese subs. subs are very small thou.. Enjoy\r\n\r\nGeneral\r\n\r\nFormat                                   : Matroska\r\nFormat version                           : Version 2\r\nFile size                                : 1.89 GiB\r\nDuration                                 : 1h 46mn\r\nOverall bit rate mode                    : Variable\r\nOverall bit rate                         : 2 540 Kbps\r\n\r\nVideo\r\nID                                       : 1\r\nFormat                                   : AVC\r\nFormat/Info                              : Advanced Video Codec\r\nFormat profile                           :   \r\nFormat settings, CABAC                   : Yes\r\nFormat settings, ReFrames                : 3 frames\r\nCodec ID                                 : V_MPEG4/ISO/AVC\r\nDuration                                 : 1h 46mn\r\nBit rate mode                            : Variable\r\nBit rate                                 : 2 233 Kbps\r\nMaximum bit rate                         : 40.0 Mbps\r\nWidth                                    : 1 280 pixels\r\nHeight                                   : 544 pixels\r\nDisplay aspect ratio                     : 2.35:1\r\nFrame rate mode                          : Constant\r\nFrame rate                               : 24.000 fps\r\nColor space                              : YUV\r\nChroma subsampling                       : 4:2:0\r\nBit depth                                : 8 bits\r\nScan type                                : Progressive\r\nBits/(Pixel*Frame)                       : 0.134\r\nStream size                              : 1.66 GiB (88%)\r\nDefault                                  : Yes\r\nForced                                   : No\r\nColor primaries                          : BT.709\r\nTransfer characteristics                 : BT.709\r\nMatrix coefficients                      : BT.709\r\n\r\nAudio\r\nID                                       : 2\r\nFormat                                   : AC-3\r\nFormat/Info                              : Audio Coding 3\r\nMode extension                           : CM (complete main)\r\nFormat settings, Endianness              : Big\r\nCodec ID                                 : A_AC3\r\nDuration                                 : 1h 46mn\r\nBit rate mode                            : Constant\r\nBit rate                                 : 256 Kbps\r\nChannel(s)                               : 2 channels\r\nChannel positions                        : Front: L R\r\nSampling rate                            : 44.1 KHz\r\nBit depth                                : 16 bits\r\nCompression mode                         : Lossy\r\nStream size                              : 195 MiB (10%)\r\nDefault                                  : Yes\r\nForced                                   : No","torrent":{"xt":"urn:btih:4f690cf5189415273acf2f24f94cf1d94f2c8e28","amp;dn":"The+Little+Prince+2015+720p+HC+HDRIP+x264+AC3+TiTAN","amp;tr":["udp%3A%2F%2Ftracker.leechers-paradise.org%3A6969","udp%3A%2F%2Fzer0day.ch%3A1337","udp%3A%2F%2Fopen.demonii.com%3A1337","udp%3A%2F%2Ftracker.coppersurfer.tk%3A6969","udp%3A%2F%2Fexodus.desync.com%3A6969"],"infoHash":"4f690cf5189415273acf2f24f94cf1d94f2c8e28","infoHashBuffer":{"type":"Buffer","data":[79,105,12,245,24,148,21,39,58,207,47,36,249,76,241,217,79,44,142,40]},"announce":[],"urlList":[]}}